<?xml version="1.0" standalone="no"?>
<!DOCTYPE svg PUBLIC "-//W3C//DTD SVG 20010904//EN"
 "http://www.w3.org/TR/2001/REC-SVG-20010904/DTD/svg10.dtd">
<svg version="1.0" xmlns="http://www.w3.org/2000/svg"
 width="480" height="262" viewBox="0 0 2816.000000 1536.000000"
 preserveAspectRatio="xMidYMid meet">
<metadata>
Created by potrace 1.16, written by Peter Selinger 2001-2019
</metadata>
<g transform="translate(0.000000,1536.000000) scale(0.100000,-0.100000)"
fill="#000000" stroke="none">
<path fill="#8B2332" d="M12427 11952 l-1737 -1738 0 1698 0 1698 -365 0 -365 0 0 -4280 0
-4280 365 0 365 0 0 1685 c0 927 2 1685 3 1685 2 0 801 -798 1776 -1773 l1772
-1772 1274 1277 1274 1278 0 755 0 755 1042 0 c573 1 1044 -1 1046 -4 3 -3
-314 -325 -703 -717 -390 -392 -717 -721 -728 -732 -21 -22 -49 9 292 -333
l204 -204 96 99 c54 55 572 576 1152 1158 580 582 1062 1066 1069 1076 13 17
-78 111 -1155 1188 l-1169 1169 -252 -252 c-139 -139 -253 -257 -253 -263 0
-5 324 -334 720 -730 396 -396 720 -721 720 -722 0 -2 -634 -3 -1410 -3
l-1410 0 0 -973 0 -973 -905 -904 -905 -905 -1702 1702 -1703 1703 562 562
c309 310 1059 1063 1667 1673 l1105 1110 859 -859 859 -858 257 253 c141 139
256 256 256 259 0 8 -2216 2224 -2228 2228 -4 1 -789 -780 -1745 -1736z"/>
<path fill="#CB3C33" d="M14047 10824 c-1 -1 -27 -4 -57 -7 -135 -12 -275 -82 -385 -192 -89
-89 -134 -158 -172 -267 -23 -64 -27 -89 -27 -208 -1 -151 8 -197 62 -304 46
-94 98 -162 168 -222 76 -64 132 -97 230 -131 71 -24 93 -27 214 -28 148 0
219 16 329 73 153 80 288 255 336 437 22 83 22 252 0 335 -59 224 -238 412
-462 484 -41 14 -227 37 -236 30z"/>
<path fill="#389826" d="M13168 9410 c-174 -30 -343 -135 -444 -276 -48 -68 -99 -176 -109
-234 -3 -18 -8 -37 -11 -42 -11 -17 -6 -205 6 -263 28 -135 92 -249 195 -350
232 -225 600 -256 859 -71 253 181 357 494 258 781 -38 109 -82 181 -157 257
-160 163 -378 235 -597 198z"/>
<path fill="#9558B2" d="M14735 9404 c-121 -26 -226 -86 -325 -183 -74 -73 -95 -101 -134
-181 -59 -121 -80 -215 -73 -335 11 -179 77 -327 202 -450 137 -136 290 -199
485 -199 159 0 277 39 403 133 299 223 363 633 148 945 -72 104 -228 218 -351
257 -88 28 -260 34 -355 13z"/>
<path d="M18535 4140 c-77 -16 -140 -74 -161 -147 -48 -164 114 -294 301 -242
87 24 154 130 142 223 -15 112 -153 193 -282 166z"/>
<path d="M19100 3210 l0 -840 185 0 185 0 0 840 0 840 -185 0 -185 0 0 -840z"/>
<path d="M9340 3955 c-299 -71 -521 -270 -610 -550 -31 -97 -39 -308 -16 -419
32 -157 93 -270 206 -386 86 -88 165 -142 265 -183 211 -86 462 -97 695 -31
98 28 226 87 288 133 l42 31 0 320 0 320 -172 -2 -173 -3 -3 -226 -2 -227 -48
-20 c-79 -34 -123 -42 -222 -42 -154 0 -261 38 -361 127 -104 94 -151 209
-151 368 0 115 21 195 71 274 42 65 116 133 180 165 191 98 465 64 616 -76 25
-22 48 -38 53 -36 16 6 232 215 232 224 0 11 -80 80 -140 121 -147 99 -266
134 -485 139 -144 3 -171 1 -265 -21z"/>
<path d="M10835 3518 c-109 -244 -261 -580 -336 -748 -75 -168 -146 -325 -158
-350 -11 -24 -21 -45 -21 -47 0 -2 88 -2 196 -1 l196 3 69 165 68 165 373 3
373 2 74 -170 74 -170 203 0 204 0 -24 48 c-13 26 -80 171 -149 322 -69 151
-194 426 -279 610 -85 184 -183 397 -218 473 l-63 137 -191 0 -191 0 -200
-442z m445 -63 c27 -66 80 -194 118 -285 l70 -165 -240 -3 c-133 -1 -242 -1
-244 1 -7 6 231 576 239 574 5 -1 30 -56 57 -122z"/>
<path d="M12300 3953 c0 -5 -1 -362 -3 -795 l-2 -788 178 0 177 0 0 460 c0
253 3 460 8 460 4 0 52 -76 106 -168 55 -92 157 -263 228 -379 l130 -213 86 0
87 0 75 128 c149 254 245 419 308 530 35 61 68 112 73 112 5 0 9 -203 9 -465
l0 -465 175 0 175 0 0 795 0 795 -159 0 -160 0 -19 -27 c-18 -27 -86 -140
-413 -690 -79 -132 -146 -240 -149 -238 -3 2 -86 137 -185 300 -99 163 -230
376 -290 473 l-111 177 -162 3 c-89 1 -162 -1 -162 -5z"/>
<path d="M14469 3956 c0 -1 -3 -358 -5 -793 l-5 -793 626 0 625 0 0 153 0 152
-435 -2 -435 -3 -1 108 c-2 209 -2 239 4 250 5 7 122 9 367 7 l360 -4 0 149 0
150 -365 0 -365 0 -1 68 c0 37 -1 109 -2 159 l-2 93 420 2 420 3 0 150 0 150
-602 1 c-332 1 -603 1 -604 0z"/>
<path d="M15989 3953 c0 -5 -1 -362 -2 -796 l-2 -787 183 2 184 3 1 467 c1
258 5 468 8 468 3 0 37 -39 76 -87 39 -49 167 -206 284 -349 118 -144 258
-316 313 -383 l98 -121 159 0 159 0 0 795 0 795 -185 0 -185 0 0 -470 c0 -258
-3 -470 -7 -469 -5 0 -125 144 -268 319 -143 176 -314 386 -380 467 l-121 148
-157 3 c-86 1 -157 -1 -158 -5z"/>
<path d="M18410 2947 l0 -623 -22 -44 c-39 -77 -126 -101 -215 -60 -51 23 -43
32 -103 -124 -47 -124 -47 -124 38 -158 50 -20 75 -23 208 -23 l150 0 76 38
c87 43 139 95 182 183 52 106 55 153 56 822 l0 612 -185 0 -185 0 0 -623z"/>
<path d="M17824 2781 c-131 -59 -172 -240 -78 -349 109 -128 317 -105 385 43
39 84 17 206 -47 267 -63 59 -178 76 -260 39z"/>
<path d="M15143 1882 l-43 -3 0 -375 0 -374 50 0 50 0 -4 91 c-5 88 -4 91 24
122 15 18 30 30 33 27 2 -3 43 -58 92 -122 l87 -118 54 0 53 0 -100 138 c-55
75 -107 143 -114 151 -12 12 0 30 85 121 55 59 100 110 100 114 0 3 -22 6 -49
6 -53 0 -43 8 -214 -175 l-47 -50 0 222 c0 122 -3 223 -7 225 -5 2 -27 2 -50
0z"/>
<path d="M12160 1505 l0 -375 45 0 45 0 0 375 0 375 -45 0 -45 0 0 -375z"/>
<path d="M12412 1844 c-27 -18 -29 -55 -4 -77 37 -34 92 -11 92 38 0 23 -32
55 -55 55 -6 0 -21 -7 -33 -16z"/>
<path d="M11370 1568 c0 -240 -2 -277 -18 -308 -21 -42 -53 -60 -110 -60 -74
0 -113 33 -124 105 -3 16 -12 21 -51 23 -46 3 -47 2 -47 -25 1 -43 34 -108 71
-136 89 -67 245 -59 316 15 58 61 57 60 60 371 l2 287 -50 0 -49 0 0 -272z"/>
<path d="M13430 1485 l0 -355 50 0 50 0 0 133 0 134 127 6 c146 8 196 26 247
90 25 31 31 49 34 103 6 84 -16 142 -70 188 -53 46 -105 56 -288 56 l-150 0 0
-355z m357 255 c57 -34 76 -104 48 -176 -24 -64 -55 -77 -192 -82 l-113 -4 0
141 0 141 113 0 c93 0 117 -3 144 -20z"/>
<path d="M12758 1656 c-58 -21 -86 -43 -108 -86 -11 -21 -20 -44 -20 -50 0 -5
20 -10 45 -10 38 0 47 4 54 23 17 43 48 61 107 61 71 0 102 -27 106 -94 l3
-45 -93 -7 c-149 -10 -219 -56 -229 -152 -7 -62 18 -119 66 -149 55 -34 163
-32 218 5 l41 27 6 -24 c6 -22 12 -25 57 -25 45 0 50 2 43 18 -4 9 -10 103
-14 207 -6 199 -12 226 -58 268 -48 44 -152 59 -224 33z m190 -321 c1 -27 -3
-61 -10 -74 -18 -33 -75 -61 -126 -61 -97 0 -137 110 -59 160 30 19 82 28 142
27 l50 -2 3 -50z"/>
<path d="M14165 1658 c-44 -15 -93 -55 -110 -88 -26 -50 -20 -60 30 -60 32 0
45 4 45 14 0 47 84 83 152 65 47 -12 68 -42 68 -95 l0 -41 -88 -5 c-98 -6
-162 -29 -202 -72 -34 -38 -40 -136 -10 -184 47 -75 188 -95 267 -39 l38 27 5
-22 c5 -19 13 -23 53 -26 l48 -3 -5 48 c-3 26 -8 120 -11 207 -6 173 -16 212
-64 245 -57 40 -150 52 -216 29z m185 -331 c0 -57 -3 -66 -30 -92 -24 -23 -41
-30 -89 -33 -54 -4 -62 -2 -85 21 -34 34 -35 86 -3 122 24 27 77 42 160 44
l47 1 0 -63z"/>
<path d="M14703 1654 c-87 -31 -143 -132 -143 -259 0 -197 131 -312 303 -264
66 18 137 96 137 149 0 19 -5 21 -42 18 -36 -2 -44 -7 -46 -25 -2 -12 -17 -34
-33 -48 -25 -20 -41 -25 -86 -25 -49 0 -59 4 -88 33 -71 71 -75 238 -9 316 29
34 82 53 126 44 35 -7 85 -55 90 -86 2 -18 10 -23 46 -25 37 -3 42 -1 42 18 0
36 -26 84 -63 117 -60 53 -149 67 -234 37z"/>
<path d="M15728 1656 c-73 -26 -109 -61 -123 -118 -7 -27 -6 -28 38 -28 40 0
48 3 59 28 18 37 79 66 123 58 55 -11 84 -43 87 -96 l3 -45 -91 -6 c-153 -9
-224 -59 -231 -161 -5 -69 19 -114 78 -146 59 -32 151 -27 208 11 l39 26 6
-24 c6 -22 12 -25 57 -25 45 0 50 2 43 18 -4 9 -11 103 -14 207 -3 105 -11
202 -17 216 -35 80 -163 121 -265 85z m190 -324 c4 -64 -14 -97 -63 -118 -58
-24 -112 -18 -146 15 -32 33 -36 58 -14 100 21 41 76 60 170 57 l50 -1 3 -53z"/>
<path d="M16278 1660 c-47 -14 -83 -47 -113 -102 -23 -43 -30 -68 -33 -135 -7
-131 29 -227 102 -272 67 -42 172 -35 228 16 17 15 18 14 18 -31 0 -62 -21
-99 -66 -121 -50 -24 -124 -15 -176 22 l-40 27 -19 -24 c-24 -33 -24 -34 11
-64 40 -33 89 -46 173 -46 75 0 121 15 154 51 49 53 52 77 54 385 l1 289 -41
3 c-38 3 -41 1 -41 -22 0 -30 -12 -33 -31 -9 -32 37 -116 53 -181 33z m136
-80 c14 -5 34 -18 46 -30 18 -18 20 -32 20 -154 0 -130 -1 -134 -26 -159 -50
-50 -145 -48 -188 4 -34 40 -41 68 -41 159 0 54 5 86 19 114 32 65 102 92 170
66z"/>
<path d="M16860 1661 c-116 -35 -172 -126 -172 -276 0 -87 15 -133 58 -184 82
-98 255 -107 347 -19 l42 39 -25 19 c-32 25 -40 25 -68 -5 -45 -47 -155 -52
-203 -9 -26 23 -56 80 -60 114 l-4 25 178 3 177 2 0 54 c0 168 -128 280 -270
237z m129 -92 c26 -24 51 -78 51 -109 0 -19 -6 -20 -130 -20 -124 0 -130 1
-130 20 0 34 38 98 68 114 42 23 114 20 141 -5z"/>
<path d="M11603 1457 c3 -189 5 -207 27 -252 18 -38 32 -51 68 -67 57 -26 145
-20 197 12 l35 22 0 -21 c0 -18 6 -21 45 -21 l45 0 0 265 0 265 -45 0 -45 0 0
-196 c0 -115 -4 -203 -10 -215 -16 -29 -64 -49 -120 -49 -65 0 -100 30 -100
87 -1 21 -2 112 -3 203 l-2 165 -48 3 -47 3 3 -204z"/>
<path d="M12400 1395 l0 -265 45 0 45 0 0 265 0 265 -45 0 -45 0 0 -265z"/>
</g>
</svg>
